<?xml version="1.0" encoding="utf-8"?>
<!-- Generator: Adobe Illustrator 16.0.0, SVG Export Plug-In . SVG Version: 6.00 Build 0)  -->
<!DOCTYPE svg PUBLIC "-//W3C//DTD SVG 1.1//EN" "http://www.w3.org/Graphics/SVG/1.1/DTD/svg11.dtd">
<svg version="1.1" id="Calque_1" xmlns="http://www.w3.org/2000/svg" xmlns:xlink="http://www.w3.org/1999/xlink" x="0px" y="0px"
	 width="283.46px" height="283.46px" viewBox="0 0 283.46 283.46" enable-background="new 0 0 283.46 283.46" xml:space="preserve">
<path fill="#FFFFFF" d="M79.231,213.697c-2.616,2.617-6.856,2.617-9.471,0.002l0,0c-2.617-2.613-2.617-6.857,0-9.472L204.227,69.759
	c2.617-2.615,6.858-2.615,9.474,0l0,0c2.612,2.614,2.612,6.854,0,9.468L79.231,213.697z"/>
<path fill="#FFFFFF" d="M213.696,204.229c2.617,2.616,2.617,6.856,0.005,9.47l0,0c-2.613,2.617-6.853,2.617-9.47,0L69.76,79.229
	c-2.615-2.613-2.615-6.856,0-9.47l0,0c2.614-2.613,6.855-2.613,9.469,0L213.696,204.229z"/>
<circle fill="none" stroke="#FFFFFF" stroke-width="3.6461" stroke-miterlimit="10" cx="141.731" cy="141.73" r="108.478"/>
</svg>
