<?xml version="1.0" encoding="utf-8"?>
<!-- Generator: Adobe Illustrator 16.0.0, SVG Export Plug-In . SVG Version: 6.00 Build 0)  -->
<!DOCTYPE svg PUBLIC "-//W3C//DTD SVG 1.1//EN" "http://www.w3.org/Graphics/SVG/1.1/DTD/svg11.dtd">
<svg version="1.1" id="Calque_1" xmlns="http://www.w3.org/2000/svg" xmlns:xlink="http://www.w3.org/1999/xlink" x="0px" y="0px"
	 width="283.46px" height="283.46px" viewBox="0 0 283.46 283.46" enable-background="new 0 0 283.46 283.46" xml:space="preserve">
<path fill="#FFFFFF" d="M237.091,166.958c0,33.117-26.844,59.965-59.965,59.965H91.375c-33.118,0-59.965-26.846-59.965-59.965
	v-30.265c0-33.12,26.847-59.966,59.965-59.966h85.751c33.119,0,59.965,26.846,59.965,59.966V166.958L237.091,166.958z"/>
<line fill="none" stroke="#000000" stroke-width="6.3462" stroke-miterlimit="10" x1="68.432" y1="120.096" x2="199.587" y2="120.096"/>
<line fill="none" stroke="#000000" stroke-width="6.3462" stroke-miterlimit="10" x1="68.432" y1="150.769" x2="199.587" y2="150.769"/>
<line fill="none" stroke="#000000" stroke-width="6.3462" stroke-miterlimit="10" x1="68.432" y1="181.929" x2="199.587" y2="181.929"/>
<polygon fill="#FFFFFF" points="186.102,224.808 219.078,167.692 252.048,224.808 "/>
<text transform="matrix(1 0 0 1 229.9009 112.6919)" fill="#FFFFFF" font-family="'MyriadPro-Regular'" font-size="60.4142">1</text>
</svg>
