<?xml version="1.0" encoding="utf-8"?>
<!-- Generator: Adobe Illustrator 16.0.0, SVG Export Plug-In . SVG Version: 6.00 Build 0)  -->
<!DOCTYPE svg PUBLIC "-//W3C//DTD SVG 1.1//EN" "http://www.w3.org/Graphics/SVG/1.1/DTD/svg11.dtd">
<svg version="1.1" id="Calque_1" xmlns="http://www.w3.org/2000/svg" xmlns:xlink="http://www.w3.org/1999/xlink" x="0px" y="0px"
	 width="283.46px" height="283.46px" viewBox="0 0 283.46 283.46" enable-background="new 0 0 283.46 283.46" xml:space="preserve">
<path fill="#FFFFFF" d="M133.559,167.107c0,20.309-16.463,36.771-36.772,36.771H44.201c-20.309,0-36.772-16.463-36.772-36.771
	v-18.559c0-20.311,16.463-36.773,36.772-36.773h52.585c20.31,0,36.772,16.463,36.772,36.773L133.559,167.107L133.559,167.107z"/>
<line fill="none" stroke="#020000" stroke-width="3.8917" stroke-miterlimit="10" x1="30.132" y1="138.37" x2="110.559" y2="138.37"/>
<line fill="none" stroke="#020000" stroke-width="3.8917" stroke-miterlimit="10" x1="30.132" y1="157.178" x2="110.559" y2="157.178"/>
<line fill="none" stroke="#020000" stroke-width="3.8917" stroke-miterlimit="10" x1="30.132" y1="176.289" x2="110.559" y2="176.289"/>
<polygon fill="#FFFFFF" points="102.288,202.582 122.51,167.556 142.73,202.582 "/>
<path fill="#FFFFFF" d="M268.859,107.435c0,20.308-16.462,36.771-36.771,36.771h-52.584c-20.311,0-36.772-16.461-36.772-36.771
	V88.876c0-20.31,16.463-36.772,36.772-36.772h52.584c20.31,0,36.771,16.463,36.771,36.772V107.435z"/>
<line fill="none" stroke="#020000" stroke-width="3.8917" stroke-miterlimit="10" x1="165.431" y1="78.698" x2="245.859" y2="78.698"/>
<line fill="none" stroke="#020000" stroke-width="3.8917" stroke-miterlimit="10" x1="165.431" y1="97.507" x2="245.859" y2="97.507"/>
<line fill="none" stroke="#020000" stroke-width="3.8917" stroke-miterlimit="10" x1="165.431" y1="116.615" x2="245.859" y2="116.615"/>
<polygon fill="#FFFFFF" points="237.589,142.91 257.81,107.885 278.031,142.91 "/>
</svg>
