<?xml version="1.0" encoding="utf-8"?>
<!-- Generator: Adobe Illustrator 16.0.0, SVG Export Plug-In . SVG Version: 6.00 Build 0)  -->
<!DOCTYPE svg PUBLIC "-//W3C//DTD SVG 1.1//EN" "http://www.w3.org/Graphics/SVG/1.1/DTD/svg11.dtd">
<svg version="1.1" id="Calque_1" xmlns="http://www.w3.org/2000/svg" xmlns:xlink="http://www.w3.org/1999/xlink" x="0px" y="0px"
	 width="283.46px" height="283.46px" viewBox="0 0 283.46 283.46" enable-background="new 0 0 283.46 283.46" xml:space="preserve">
<path stroke="#FFFFFF" stroke-width="6.5429" stroke-miterlimit="10" d="M175.048,155.361
	c-6.607,26.945-28.793,44.659-49.555,39.568l0,0c-20.755-5.088-32.224-31.059-25.617-58.001l18.648-76.048
	c6.61-26.95,28.793-44.663,49.55-39.575l0,0c20.758,5.09,32.229,31.059,25.621,58.011L175.048,155.361z"/>
<rect x="84.164" y="155.926" transform="matrix(0.9712 0.2382 -0.2382 0.9712 52.5066 -23.3482)" fill="#FFFFFF" stroke="#FFFFFF" stroke-width="3.6837" stroke-miterlimit="10" width="77.395" height="99.317"/>
<rect x="104.335" y="88.398" transform="matrix(0.9712 0.2382 -0.2382 0.9712 33.5053 -30.5188)" stroke="#FFFFFF" stroke-width="6.2632" stroke-miterlimit="10" width="77.396" height="69.961"/>
<line fill="none" stroke="#FFFFFF" stroke-width="6.2632" stroke-miterlimit="10" x1="128.883" y1="83.878" x2="112.221" y2="151.828"/>
<line fill="none" stroke="#FFFFFF" stroke-width="6.2632" stroke-miterlimit="10" x1="151.376" y1="89.396" x2="134.713" y2="157.345"/>
<line fill="none" stroke="#FFFFFF" stroke-width="6.2632" stroke-miterlimit="10" x1="172.828" y1="94.656" x2="156.167" y2="162.606"/>
<line fill="none" stroke="#000000" stroke-width="4.0176" stroke-miterlimit="10" x1="119.512" y1="153.617" x2="95.856" y2="250.073"/>
<line fill="none" stroke="#000000" stroke-width="4.0176" stroke-miterlimit="10" x1="150.392" y1="161.189" x2="126.732" y2="257.647"/>
</svg>
