<?xml version="1.0" encoding="utf-8"?>
<!-- Generator: Adobe Illustrator 16.0.0, SVG Export Plug-In . SVG Version: 6.00 Build 0)  -->
<!DOCTYPE svg PUBLIC "-//W3C//DTD SVG 1.1//EN" "http://www.w3.org/Graphics/SVG/1.1/DTD/svg11.dtd">
<svg version="1.1" id="Calque_1" xmlns="http://www.w3.org/2000/svg" xmlns:xlink="http://www.w3.org/1999/xlink" x="0px" y="0px"
	 width="841.889px" height="1190.551px" viewBox="0 0 841.889 1190.551" enable-background="new 0 0 841.889 1190.551"
	 xml:space="preserve">
<path fill="#FFFFFF" d="M746.756,772.913l-181.85-181.006c43.778-48.83,68.193-111.13,68.193-177.639
	c0-148.173-122.916-269.405-274.456-269.405S84.189,266.096,84.189,414.269c0,148.172,122.916,269.404,274.456,269.404
	c53.039,0,104.395-15.154,149.015-42.938l186.899,183.532c6.734,6.735,15.996,10.944,26.099,10.944
	c10.104,0,18.521-4.209,26.1-10.944c7.577-6.735,10.943-15.996,10.943-25.257C757.7,789.749,753.49,780.49,746.756,772.913z
	 M560.698,414.269c0,108.604-90.082,197.002-200.369,197.002s-200.369-88.398-200.369-197.002s90.082-197.003,200.369-197.003
	S560.698,305.665,560.698,414.269z"/>
</svg>
