<?xml version="1.0" encoding="utf-8"?>
<!-- Generator: Adobe Illustrator 16.0.0, SVG Export Plug-In . SVG Version: 6.00 Build 0)  -->
<!DOCTYPE svg PUBLIC "-//W3C//DTD SVG 1.1//EN" "http://www.w3.org/Graphics/SVG/1.1/DTD/svg11.dtd">
<svg version="1.1" id="Calque_1" xmlns="http://www.w3.org/2000/svg" xmlns:xlink="http://www.w3.org/1999/xlink" x="0px" y="0px"
	 width="283.46px" height="283.46px" viewBox="0 0 283.46 283.46" enable-background="new 0 0 283.46 283.46" xml:space="preserve">
<path fill="#FFFFFF" stroke="#000000" stroke-width="3" stroke-miterlimit="10" d="M159.323,32.882
	c0,5.783-4.688,10.472-10.471,10.472H130.9c-5.782,0-10.472-4.689-10.472-10.472l0,0c0-5.782,4.689-10.472,10.472-10.472h17.952
	C154.634,22.411,159.323,27.098,159.323,32.882L159.323,32.882z"/>
<path fill="#FFFFFF" d="M231.628,238.435c0,12.49-10.125,22.615-22.615,22.615H80.71c-12.49,0-22.615-10.125-22.615-22.615V68.244
	c0-12.49,10.127-22.615,22.615-22.615h128.303c12.49,0,22.615,10.127,22.615,22.615V238.435z"/>
<line stroke="#000000" stroke-width="3" stroke-miterlimit="10" x1="95.993" y1="82.53" x2="95.993" y2="223.152"/>
<line stroke="#000000" stroke-width="3" stroke-miterlimit="10" x1="139.875" y1="83.028" x2="139.875" y2="223.651"/>
<line stroke="#000000" stroke-width="3" stroke-miterlimit="10" x1="190.739" y1="83.028" x2="190.739" y2="223.651"/>
<rect x="46.127" y="32.882" fill="#FFFFFF" width="194.478" height="22.72"/>
</svg>
