<?xml version="1.0" encoding="utf-8"?>
<!-- Generator: Adobe Illustrator 16.0.0, SVG Export Plug-In . SVG Version: 6.00 Build 0)  -->
<!DOCTYPE svg PUBLIC "-//W3C//DTD SVG 1.1//EN" "http://www.w3.org/Graphics/SVG/1.1/DTD/svg11.dtd">
<svg version="1.1" id="Calque_1" xmlns="http://www.w3.org/2000/svg" xmlns:xlink="http://www.w3.org/1999/xlink" x="0px" y="0px"
	 width="737.14px" height="47px" viewBox="0 345.445 737.14 47" enable-background="new 0 345.445 737.14 47" xml:space="preserve">
<path fill="#FFFFFF" d="M684.283,367.535c-8.605,4.837-13.628,7.602-24.388,7.602c-10.042,0-15.062-2.764-24.39-7.602
	c-9.324-5.528-20.802-12.093-44.474-12.093c-23.67,0-35.146,6.565-44.473,12.093c-8.607,4.837-13.628,7.602-24.387,7.602
	c-10.043,0-15.064-2.764-24.39-7.602c-9.324-5.528-20.803-12.093-44.474-12.093c-23.672,0-35.147,6.565-44.474,12.093
	c-8.608,4.837-13.628,7.602-24.388,7.602c-10.043,0-15.063-2.764-24.388-7.602c-9.325-5.183-20.803-12.093-44.473-12.093
	c-23.673,0-35.149,6.565-44.474,12.093c-8.607,4.837-13.629,7.602-24.39,7.602c-10.043,0-15.063-2.764-24.388-7.602
	c-9.325-5.528-20.802-12.093-44.473-12.093c-23.671,0-35.147,6.565-44.472,12.093c-8.609,4.837-13.631,7.602-24.389,7.602
	c-10.042,0-15.064-2.764-24.389-7.602c-9.325-5.528-20.802-12.093-44.473-12.093v11.402c10.042,0,15.063,2.764,24.388,7.602
	c9.326,5.528,20.803,12.093,44.475,12.093s35.147-6.565,44.474-12.093c9.323-4.837,14.345-7.602,24.388-7.602
	c10.043,0,15.063,2.764,24.388,7.602c9.325,5.528,20.802,12.093,44.473,12.093s35.147-6.565,44.474-12.093
	c9.325-4.837,14.347-7.602,24.39-7.602c10.041,0,15.062,2.764,24.388,7.602c9.325,5.528,20.803,12.093,44.473,12.093
	c23.671,0,35.147-6.565,44.473-12.093c8.608-4.837,14.349-7.602,24.389-7.602c10.042,0,15.064,2.764,24.39,7.602
	c9.324,5.528,20.802,12.093,44.474,12.093c23.671,0,35.146-6.565,44.473-12.093c9.324-4.837,14.345-7.602,24.387-7.602
	c10.043,0,15.064,2.764,24.392,7.602c9.322,5.528,20.802,12.093,44.472,12.093s35.148-6.565,44.473-12.093
	c9.325-4.837,14.348-7.602,24.389-7.602l0,0v-11.402C705.086,355.441,693.609,362.006,684.283,367.535z"/>
</svg>
